<svg width="34" height="33" viewBox="0 0 34 33" fill="none" xmlns="http://www.w3.org/2000/svg">
<path d="M6.99998 8.12997H9.59998C9.93764 8.12786 10.266 8.24051 10.5313 8.44944C10.7965 8.65838 10.9829 8.95122 11.06 9.27997L12.18 13.93C12.1934 13.9864 12.2252 14.0368 12.2705 14.073C12.3158 14.1093 12.372 14.1293 12.43 14.13H28.91C29.0678 14.1296 29.2234 14.1665 29.3642 14.2378C29.505 14.309 29.6269 14.4126 29.72 14.54C29.8129 14.6682 29.8741 14.8166 29.8984 14.9731C29.9227 15.1296 29.9096 15.2896 29.86 15.44L27.19 23.44C27.1246 23.6405 26.9975 23.8152 26.8269 23.9391C26.6563 24.063 26.4509 24.1298 26.24 24.13H14.9C14.862 24.1288 14.8242 24.1363 14.7896 24.1519C14.7549 24.1675 14.7243 24.1908 14.7 24.22C14.6854 24.2531 14.6778 24.2888 14.6778 24.325C14.6778 24.3611 14.6854 24.3969 14.7 24.43L14.81 24.93C14.8234 24.9864 14.8552 25.0368 14.9005 25.073C14.9458 25.1093 15.002 25.1293 15.06 25.13H25.08C25.5227 25.1398 25.9527 25.2801 26.3161 25.5332C26.6795 25.7864 26.9601 26.1411 27.1227 26.553C27.2854 26.9649 27.3229 27.4157 27.2305 27.8488C27.1381 28.2819 26.92 28.6781 26.6034 28.9878C26.2868 29.2975 25.8859 29.5069 25.4509 29.5897C25.0158 29.6725 24.566 29.6252 24.1578 29.4535C23.7496 29.2818 23.4011 28.9935 23.156 28.6247C22.9109 28.2558 22.7801 27.8228 22.78 27.38C22.7795 27.3461 22.7722 27.3127 22.7585 27.2818C22.7447 27.2508 22.7248 27.223 22.7 27.2C22.6784 27.1767 22.652 27.1584 22.6226 27.1464C22.5933 27.1343 22.5617 27.1287 22.53 27.13H16.53C16.4637 27.13 16.4001 27.1563 16.3532 27.2032C16.3063 27.2501 16.28 27.3137 16.28 27.38C16.2786 27.7647 16.1786 28.1427 15.9895 28.4778C15.8004 28.8129 15.5286 29.0939 15.1999 29.294C14.8712 29.4941 14.4968 29.6065 14.1122 29.6206C13.7277 29.6346 13.346 29.5499 13.0036 29.3743C12.6612 29.1988 12.3695 28.9384 12.1565 28.618C11.9434 28.2976 11.8161 27.928 11.7866 27.5443C11.7571 27.1607 11.8266 26.7759 11.9882 26.4267C12.1499 26.0776 12.3984 25.7757 12.71 25.55C12.7502 25.5238 12.7807 25.4852 12.797 25.4401C12.8132 25.395 12.8143 25.3458 12.8 25.3L9.27998 10.3C9.25988 10.2438 9.2211 10.1963 9.17012 10.1653C9.11914 10.1344 9.05907 10.1219 8.99998 10.13H6.99998C6.73476 10.13 6.48041 10.0246 6.29287 9.83708C6.10534 9.64954 5.99998 9.39519 5.99998 9.12997C5.99998 8.86476 6.10534 8.6104 6.29287 8.42287C6.48041 8.23533 6.73476 8.12997 6.99998 8.12997Z" fill="#5433EB"/>
<path d="M20.2 13.13H14.91C14.7209 13.1322 14.535 13.0808 14.3739 12.9817C14.2129 12.8826 14.0832 12.7398 14 12.57C13.9158 12.4039 13.8796 12.2177 13.8955 12.0322C13.9114 11.8466 13.9787 11.6693 14.09 11.52L16.07 8.99997L16.16 8.88997C16.4638 8.58648 16.8756 8.416 17.305 8.416C17.7344 8.416 18.1462 8.58648 18.45 8.88997L20.92 11.43C21.0582 11.571 21.1516 11.7497 21.1884 11.9437C21.2252 12.1377 21.2037 12.3382 21.1267 12.52C21.0497 12.7018 20.9206 12.8567 20.7557 12.9653C20.5908 13.0738 20.3974 13.1311 20.2 13.13ZM28.6 12.53C28.5219 12.7089 28.3932 12.861 28.2298 12.9676C28.0663 13.0742 27.8752 13.1307 27.68 13.13H23.37C23.2044 13.128 23.0418 13.085 22.897 13.0047C22.7521 12.9244 22.6294 12.8094 22.54 12.67C22.4398 12.5251 22.3796 12.3563 22.3655 12.1807C22.3515 12.0051 22.3841 11.8289 22.46 11.67L24.46 7.24997C24.556 7.04379 24.6948 6.86043 24.8673 6.71214C25.0397 6.56384 25.2418 6.45401 25.46 6.38997C25.8757 6.28944 26.3139 6.34644 26.69 6.54997L29 7.60997C29.3923 7.79133 29.699 8.11773 29.8557 8.52054C30.0123 8.92336 30.0067 9.37122 29.84 9.76997L28.6 12.53Z" fill="#C71D60" fill-opacity="0.5"/>
<rect x="1" width="1" height="1" fill="#D9D9D9" fill-opacity="0.01"/>
</svg>
