<svg width="50" height="49" viewBox="0 0 50 49" fill="none" xmlns="http://www.w3.org/2000/svg">
<path d="M15.4714 4.71628H18.3685C18.7448 4.71393 19.1107 4.83945 19.4062 5.07226C19.7018 5.30508 19.9095 5.63138 19.9954 5.99771L21.2434 11.1791C21.2583 11.242 21.2938 11.2981 21.3443 11.3385C21.3948 11.3789 21.4573 11.4013 21.522 11.402H39.8854C40.0612 11.4015 40.2346 11.4427 40.3915 11.5221C40.5484 11.6015 40.6842 11.7169 40.788 11.8589C40.8915 12.0017 40.9596 12.1671 40.9868 12.3415C41.0139 12.5158 40.9992 12.6941 40.944 12.8617L37.9688 21.776C37.896 21.9994 37.7544 22.1941 37.5642 22.3321C37.3741 22.4702 37.1452 22.5447 36.9102 22.5449H24.2742C24.2319 22.5435 24.1898 22.5519 24.1512 22.5693C24.1126 22.5866 24.0785 22.6126 24.0514 22.6451C24.0351 22.682 24.0267 22.7218 24.0267 22.7621C24.0267 22.8024 24.0351 22.8423 24.0514 22.8791L24.174 23.4363C24.1889 23.4992 24.2244 23.5553 24.2749 23.5957C24.3253 23.6361 24.3879 23.6584 24.4525 23.6591H35.6177C36.111 23.6701 36.5902 23.8264 36.9951 24.1085C37.4 24.3906 37.7126 24.7858 37.8939 25.2448C38.0751 25.7038 38.1169 26.206 38.0139 26.6887C37.911 27.1713 37.6679 27.6128 37.3152 27.9579C36.9624 28.3029 36.5157 28.5362 36.0309 28.6285C35.5462 28.7209 35.045 28.6681 34.5901 28.4768C34.1352 28.2855 33.7469 27.9642 33.4738 27.5532C33.2007 27.1422 33.0549 26.6597 33.0548 26.1663C33.0543 26.1286 33.0461 26.0913 33.0308 26.0568C33.0155 26.0224 32.9933 25.9914 32.9657 25.9657C32.9416 25.9398 32.9122 25.9194 32.8795 25.906C32.8468 25.8925 32.8116 25.8863 32.7762 25.8877H26.0905C26.0166 25.8877 25.9458 25.9171 25.8935 25.9693C25.8413 26.0215 25.812 26.0924 25.812 26.1663C25.8104 26.595 25.699 27.0162 25.4883 27.3896C25.2776 27.763 24.9747 28.0761 24.6084 28.2991C24.2422 28.522 23.8249 28.6473 23.3965 28.6629C22.968 28.6786 22.5427 28.5842 22.1612 28.3886C21.7796 28.193 21.4546 27.9028 21.2172 27.5458C20.9798 27.1888 20.8379 26.7769 20.805 26.3494C20.7722 25.9219 20.8496 25.4932 21.0297 25.1041C21.2098 24.715 21.4867 24.3787 21.834 24.1271C21.8788 24.098 21.9128 24.055 21.9309 24.0047C21.949 23.9544 21.9502 23.8996 21.9342 23.8486L18.012 7.13428C17.9896 7.07171 17.9463 7.01874 17.8895 6.98425C17.8327 6.94976 17.7658 6.93585 17.7 6.94485H15.4714C15.1759 6.94485 14.8924 6.82745 14.6835 6.61848C14.4745 6.40952 14.3571 6.12609 14.3571 5.83057C14.3571 5.53504 14.4745 5.25162 14.6835 5.04265C14.8924 4.83368 15.1759 4.71628 15.4714 4.71628Z" fill="#5433EB"/>
<path d="M30.18 10.2877H24.2854C24.0747 10.2902 23.8675 10.2329 23.6881 10.1225C23.5086 10.012 23.3641 9.85295 23.2714 9.6637C23.1775 9.47867 23.1372 9.27112 23.1549 9.06441C23.1726 8.8577 23.2477 8.66004 23.3717 8.4937L25.578 5.6857L25.6782 5.56312C26.0167 5.22494 26.4756 5.03498 26.9541 5.03498C27.4326 5.03498 27.8915 5.22494 28.23 5.56312L30.9822 8.39341C31.1362 8.55051 31.2403 8.74969 31.2813 8.96583C31.3223 9.18198 31.2984 9.40542 31.2126 9.60799C31.1268 9.81057 30.9829 9.98321 30.7992 10.1042C30.6154 10.2251 30.4 10.289 30.18 10.2877ZM39.54 9.61912C39.453 9.81845 39.3096 9.98795 39.1274 10.1068C38.9452 10.2256 38.7323 10.2885 38.5148 10.2877H33.7122C33.5277 10.2855 33.3466 10.2376 33.1851 10.1481C33.0237 10.0586 32.887 9.93047 32.7874 9.77512C32.6757 9.6137 32.6086 9.42564 32.593 9.22997C32.5773 9.0343 32.6136 8.83796 32.6982 8.66084L34.9268 3.7357C35.0338 3.50595 35.1885 3.30164 35.3806 3.13639C35.5728 2.97115 35.7979 2.84877 36.0411 2.77741C36.5043 2.66539 36.9926 2.7289 37.4117 2.9557L39.9857 4.13684C40.4228 4.33893 40.7646 4.70262 40.9391 5.15147C41.1137 5.60032 41.1074 6.09937 40.9217 6.5437L39.54 9.61912Z" fill="#C71D60" fill-opacity="0.5"/>
<rect x="7" y="47" width="14" height="1" fill="#D9D9D9" fill-opacity="0.01"/>
</svg>
