<svg width="479" height="79" viewBox="0 0 479 79" fill="none" xmlns="http://www.w3.org/2000/svg">
<path d="M55.893 6.93803C55.363 6.98553 54.8868 7.43428 54.9255 7.99553C54.9618 8.50678 55.3468 8.92553 55.8493 8.99928C56.3905 9.07803 56.9018 8.74303 57.0168 8.18678C57.1668 7.45803 56.5943 6.87553 55.893 6.93803ZM55.5305 6.29303C55.8405 6.69553 56.3455 6.53553 56.5493 6.07553C56.693 5.75053 56.803 5.37678 56.888 5.02803C56.968 4.69303 57.0518 4.35803 57.1218 4.02053C57.1918 3.68803 57.253 3.13303 57.2843 2.79428C57.3493 2.11428 57.3705 1.39178 57.073 0.766776C56.8455 0.285526 56.3093 -0.0619741 55.7868 0.00927593C53.7305 0.288026 54.6705 3.85053 54.9893 5.02678C55.1005 5.43928 55.2793 5.96803 55.5305 6.29303ZM57.1218 11.7993C57.0518 11.4618 56.968 11.1268 56.888 10.7918C56.803 10.4418 56.693 10.068 56.5493 9.74428C56.3455 9.28553 55.8405 9.12303 55.5305 9.52678C55.2805 9.85053 55.1018 10.3805 54.9893 10.793C54.6705 11.9693 53.7305 15.5305 55.7868 15.8105C56.3093 15.8805 56.8455 15.5343 57.0743 15.0518C57.3705 14.4255 57.3505 13.703 57.2855 13.0243C57.2518 12.6855 57.1918 12.1318 57.1218 11.7993ZM63.8118 7.78553C63.533 5.73053 59.9705 6.67053 58.7943 6.98928C58.3818 7.10053 57.853 7.27928 57.5268 7.52928C57.1243 7.83928 57.2855 8.34428 57.7443 8.54803C58.068 8.69053 58.4418 8.80178 58.7918 8.88678C59.1268 8.96803 59.4618 9.05053 59.7993 9.12178C60.1318 9.19053 60.6855 9.25178 61.0255 9.28428C61.7043 9.34928 62.4268 9.37053 63.053 9.07303C63.5355 8.84553 63.883 8.30928 63.8118 7.78553ZM54.293 7.52928C53.968 7.27928 53.438 7.10053 53.0255 6.98928C51.8505 6.67053 48.288 5.73053 48.0093 7.78553C47.938 8.30928 48.2855 8.84553 48.768 9.07303C49.393 9.36928 50.1168 9.34928 50.7955 9.28428C51.1355 9.25178 51.6893 9.19178 52.0218 9.12178C52.3593 9.05053 52.6943 8.96803 53.0293 8.88678C53.378 8.80178 53.753 8.69178 54.0768 8.54803C54.5343 8.34553 54.6968 7.83928 54.293 7.52928ZM58.2055 6.08803C58.2518 6.08803 58.298 6.07428 58.338 6.04553C58.6855 5.79303 61.7405 3.56803 61.968 3.33928C62.073 3.23428 62.2643 3.01928 62.3605 2.75928C62.4805 2.43303 62.4168 2.12303 62.1818 1.88803C62.0205 1.72678 61.8193 1.64053 61.5993 1.64053C61.2468 1.64053 60.9018 1.86178 60.6943 2.06678C60.4655 2.29678 58.2705 5.38178 58.0205 5.73303C57.9568 5.82178 57.968 5.94553 58.0455 6.02303C58.0905 6.06553 58.148 6.08803 58.2055 6.08803ZM49.853 3.33803C50.0805 3.56678 53.1355 5.79178 53.483 6.04428C53.523 6.07303 53.5693 6.08678 53.6155 6.08678C53.6569 6.08702 53.6975 6.07583 53.7329 6.05443C53.7683 6.03304 53.7971 6.00228 53.8161 5.96555C53.8351 5.92881 53.8436 5.88754 53.8406 5.84629C53.8377 5.80503 53.8234 5.7654 53.7993 5.73178C53.5505 5.37928 51.3555 2.29553 51.1255 2.06553C50.9193 1.85928 50.573 1.63928 50.2218 1.63928C50.0018 1.63928 49.8005 1.72553 49.6393 1.88678C49.4043 2.12178 49.3405 2.43178 49.4605 2.75803C49.5568 3.01803 49.748 3.23303 49.853 3.33803ZM61.968 12.4818C61.7405 12.2543 58.6855 10.0293 58.338 9.77678C58.2493 9.71178 58.1255 9.72178 58.0468 9.79928C57.968 9.87678 57.958 10.0005 58.0218 10.0893C58.2718 10.4405 60.4668 13.5255 60.6955 13.7555C60.903 13.9618 61.248 14.1818 61.6005 14.1818C61.8205 14.1818 62.0205 14.0968 62.183 13.9355C62.418 13.6993 62.4818 13.3905 62.3618 13.0643C62.2643 12.803 62.073 12.588 61.968 12.4818ZM53.483 9.77553C53.1355 10.028 50.0805 12.253 49.853 12.4805C49.748 12.5868 49.5568 12.8018 49.4605 13.0618C49.3405 13.388 49.4043 13.6968 49.6393 13.933C49.8005 14.0943 50.0018 14.1793 50.2218 14.1793C50.5743 14.1793 50.9193 13.9593 51.1268 13.753C51.3555 13.523 53.5505 10.438 53.7993 10.0868C53.863 9.99803 53.853 9.87428 53.7743 9.79678C53.6955 9.72178 53.573 9.71178 53.483 9.77553Z" fill="url(#paint0_radial_25_61)"/>
<path d="M446.211 60V58.48L447.411 58.08C448.478 57.8134 449.198 57.36 449.571 56.72C449.998 56.08 450.211 55.2267 450.211 54.16V30.72C450.158 29.5467 449.945 28.6667 449.571 28.08C449.198 27.44 448.478 27.0134 447.411 26.8L446.211 26.48V25.04L459.251 20.4L460.211 21.28L460.931 28.32V28.88C461.731 27.3867 462.745 26 463.971 24.72C465.198 23.44 466.531 22.4 467.971 21.6C469.411 20.8 470.851 20.4 472.291 20.4C474.318 20.4 475.838 20.9334 476.851 22C477.865 23.0667 478.371 24.4267 478.371 26.08C478.371 27.8934 477.865 29.28 476.851 30.24C475.838 31.1467 474.611 31.6 473.171 31.6C471.038 31.6 469.198 30.64 467.651 28.72L467.491 28.56C466.958 27.92 466.345 27.5734 465.651 27.52C465.011 27.4134 464.371 27.7334 463.731 28.48C463.198 29.0134 462.691 29.6534 462.211 30.4C461.785 31.0934 461.385 31.92 461.011 32.88V53.84C461.011 54.8534 461.225 55.7067 461.651 56.4C462.078 57.04 462.798 57.4934 463.811 57.76L466.211 58.48V60H446.211Z" fill="#5433EB"/>
<path d="M446.211 60V58.48L447.411 58.08C448.478 57.8134 449.198 57.36 449.571 56.72C449.998 56.08 450.211 55.2267 450.211 54.16V30.72C450.158 29.5467 449.945 28.6667 449.571 28.08C449.198 27.44 448.478 27.0134 447.411 26.8L446.211 26.48V25.04L459.251 20.4L460.211 21.28L460.931 28.32V28.88C461.731 27.3867 462.745 26 463.971 24.72C465.198 23.44 466.531 22.4 467.971 21.6C469.411 20.8 470.851 20.4 472.291 20.4C474.318 20.4 475.838 20.9334 476.851 22C477.865 23.0667 478.371 24.4267 478.371 26.08C478.371 27.8934 477.865 29.28 476.851 30.24C475.838 31.1467 474.611 31.6 473.171 31.6C471.038 31.6 469.198 30.64 467.651 28.72L467.491 28.56C466.958 27.92 466.345 27.5734 465.651 27.52C465.011 27.4134 464.371 27.7334 463.731 28.48C463.198 29.0134 462.691 29.6534 462.211 30.4C461.785 31.0934 461.385 31.92 461.011 32.88V53.84C461.011 54.8534 461.225 55.7067 461.651 56.4C462.078 57.04 462.798 57.4934 463.811 57.76L466.211 58.48V60H446.211Z" fill="url(#paint1_radial_25_61)" fill-opacity="0.8"/>
<path d="M446.211 60V58.48L447.411 58.08C448.478 57.8134 449.198 57.36 449.571 56.72C449.998 56.08 450.211 55.2267 450.211 54.16V30.72C450.158 29.5467 449.945 28.6667 449.571 28.08C449.198 27.44 448.478 27.0134 447.411 26.8L446.211 26.48V25.04L459.251 20.4L460.211 21.28L460.931 28.32V28.88C461.731 27.3867 462.745 26 463.971 24.72C465.198 23.44 466.531 22.4 467.971 21.6C469.411 20.8 470.851 20.4 472.291 20.4C474.318 20.4 475.838 20.9334 476.851 22C477.865 23.0667 478.371 24.4267 478.371 26.08C478.371 27.8934 477.865 29.28 476.851 30.24C475.838 31.1467 474.611 31.6 473.171 31.6C471.038 31.6 469.198 30.64 467.651 28.72L467.491 28.56C466.958 27.92 466.345 27.5734 465.651 27.52C465.011 27.4134 464.371 27.7334 463.731 28.48C463.198 29.0134 462.691 29.6534 462.211 30.4C461.785 31.0934 461.385 31.92 461.011 32.88V53.84C461.011 54.8534 461.225 55.7067 461.651 56.4C462.078 57.04 462.798 57.4934 463.811 57.76L466.211 58.48V60H446.211Z" fill="url(#paint2_radial_25_61)" fill-opacity="0.2"/>
<path d="M421.977 20.4C425.337 20.4 428.217 21.0934 430.617 22.48C433.017 23.8667 434.857 25.7867 436.137 28.24C437.47 30.64 438.137 33.4134 438.137 36.56C438.137 37.2534 438.11 37.92 438.057 38.56C438.004 39.1467 437.897 39.7067 437.737 40.24H413.657C413.71 45.7334 414.724 49.68 416.697 52.08C418.724 54.48 421.657 55.68 425.497 55.68C428.164 55.68 430.324 55.2534 431.977 54.4C433.63 53.4934 435.15 52.24 436.537 50.64L437.817 51.84C436.217 54.7734 434.03 57.0667 431.257 58.72C428.537 60.32 425.284 61.12 421.497 61.12C417.71 61.12 414.377 60.32 411.497 58.72C408.617 57.12 406.35 54.8267 404.697 51.84C403.097 48.8 402.297 45.1734 402.297 40.96C402.297 36.5867 403.23 32.88 405.097 29.84C407.017 26.8 409.47 24.48 412.457 22.88C415.497 21.2267 418.67 20.4 421.977 20.4ZM421.577 22.72C420.03 22.72 418.67 23.1734 417.497 24.08C416.377 24.9334 415.47 26.48 414.777 28.72C414.137 30.9067 413.764 34 413.657 38H427.977C428.564 32.6134 428.35 28.72 427.337 26.32C426.324 23.92 424.404 22.72 421.577 22.72Z" fill="#5433EB"/>
<path d="M421.977 20.4C425.337 20.4 428.217 21.0934 430.617 22.48C433.017 23.8667 434.857 25.7867 436.137 28.24C437.47 30.64 438.137 33.4134 438.137 36.56C438.137 37.2534 438.11 37.92 438.057 38.56C438.004 39.1467 437.897 39.7067 437.737 40.24H413.657C413.71 45.7334 414.724 49.68 416.697 52.08C418.724 54.48 421.657 55.68 425.497 55.68C428.164 55.68 430.324 55.2534 431.977 54.4C433.63 53.4934 435.15 52.24 436.537 50.64L437.817 51.84C436.217 54.7734 434.03 57.0667 431.257 58.72C428.537 60.32 425.284 61.12 421.497 61.12C417.71 61.12 414.377 60.32 411.497 58.72C408.617 57.12 406.35 54.8267 404.697 51.84C403.097 48.8 402.297 45.1734 402.297 40.96C402.297 36.5867 403.23 32.88 405.097 29.84C407.017 26.8 409.47 24.48 412.457 22.88C415.497 21.2267 418.67 20.4 421.977 20.4ZM421.577 22.72C420.03 22.72 418.67 23.1734 417.497 24.08C416.377 24.9334 415.47 26.48 414.777 28.72C414.137 30.9067 413.764 34 413.657 38H427.977C428.564 32.6134 428.35 28.72 427.337 26.32C426.324 23.92 424.404 22.72 421.577 22.72Z" fill="url(#paint3_radial_25_61)" fill-opacity="0.8"/>
<path d="M421.977 20.4C425.337 20.4 428.217 21.0934 430.617 22.48C433.017 23.8667 434.857 25.7867 436.137 28.24C437.47 30.64 438.137 33.4134 438.137 36.56C438.137 37.2534 438.11 37.92 438.057 38.56C438.004 39.1467 437.897 39.7067 437.737 40.24H413.657C413.71 45.7334 414.724 49.68 416.697 52.08C418.724 54.48 421.657 55.68 425.497 55.68C428.164 55.68 430.324 55.2534 431.977 54.4C433.63 53.4934 435.15 52.24 436.537 50.64L437.817 51.84C436.217 54.7734 434.03 57.0667 431.257 58.72C428.537 60.32 425.284 61.12 421.497 61.12C417.71 61.12 414.377 60.32 411.497 58.72C408.617 57.12 406.35 54.8267 404.697 51.84C403.097 48.8 402.297 45.1734 402.297 40.96C402.297 36.5867 403.23 32.88 405.097 29.84C407.017 26.8 409.47 24.48 412.457 22.88C415.497 21.2267 418.67 20.4 421.977 20.4ZM421.577 22.72C420.03 22.72 418.67 23.1734 417.497 24.08C416.377 24.9334 415.47 26.48 414.777 28.72C414.137 30.9067 413.764 34 413.657 38H427.977C428.564 32.6134 428.35 28.72 427.337 26.32C426.324 23.92 424.404 22.72 421.577 22.72Z" fill="url(#paint4_radial_25_61)" fill-opacity="0.2"/>
<path d="M351.805 78.48V76.96L352.845 76.64C353.912 76.3734 354.658 75.92 355.085 75.28C355.512 74.6934 355.725 73.84 355.725 72.72C355.725 70.5334 355.725 68.4534 355.725 66.48C355.778 64.56 355.805 62.6934 355.805 60.88V38.88C355.805 37.2267 355.805 35.8134 355.805 34.64C355.805 33.4134 355.778 32.0534 355.725 30.56C355.725 29.44 355.538 28.5867 355.165 28C354.792 27.36 354.072 26.9334 353.005 26.72L351.805 26.48V25.04L364.685 20.4L365.645 21.2L366.365 24.16C370.045 21.6534 374.205 20.4 378.845 20.4C383.378 20.4 387.005 22.1067 389.725 25.52C392.498 28.9334 393.885 33.9734 393.885 40.64C393.885 47.0934 392.365 52.1334 389.325 55.76C386.338 59.3334 382.258 61.12 377.085 61.12C375.005 61.12 373.032 60.9334 371.165 60.56C369.352 60.1867 367.725 59.6267 366.285 58.88V61.28C366.285 62.88 366.285 64.6134 366.285 66.48C366.338 68.3467 366.365 70.3734 366.365 72.56C366.365 74.6934 367.298 76.0267 369.165 76.56L370.685 76.96V78.48H351.805ZM373.325 57.92C376.152 57.92 378.365 56.6667 379.965 54.16C381.618 51.6 382.445 47.2 382.445 40.96C382.445 34.7734 381.672 30.4534 380.125 28C378.578 25.4934 376.392 24.24 373.565 24.24C372.552 24.24 371.458 24.4 370.285 24.72C369.112 25.04 367.858 25.5734 366.525 26.32V56.56C368.658 57.4667 370.925 57.92 373.325 57.92Z" fill="#5433EB"/>
<path d="M351.805 78.48V76.96L352.845 76.64C353.912 76.3734 354.658 75.92 355.085 75.28C355.512 74.6934 355.725 73.84 355.725 72.72C355.725 70.5334 355.725 68.4534 355.725 66.48C355.778 64.56 355.805 62.6934 355.805 60.88V38.88C355.805 37.2267 355.805 35.8134 355.805 34.64C355.805 33.4134 355.778 32.0534 355.725 30.56C355.725 29.44 355.538 28.5867 355.165 28C354.792 27.36 354.072 26.9334 353.005 26.72L351.805 26.48V25.04L364.685 20.4L365.645 21.2L366.365 24.16C370.045 21.6534 374.205 20.4 378.845 20.4C383.378 20.4 387.005 22.1067 389.725 25.52C392.498 28.9334 393.885 33.9734 393.885 40.64C393.885 47.0934 392.365 52.1334 389.325 55.76C386.338 59.3334 382.258 61.12 377.085 61.12C375.005 61.12 373.032 60.9334 371.165 60.56C369.352 60.1867 367.725 59.6267 366.285 58.88V61.28C366.285 62.88 366.285 64.6134 366.285 66.48C366.338 68.3467 366.365 70.3734 366.365 72.56C366.365 74.6934 367.298 76.0267 369.165 76.56L370.685 76.96V78.48H351.805ZM373.325 57.92C376.152 57.92 378.365 56.6667 379.965 54.16C381.618 51.6 382.445 47.2 382.445 40.96C382.445 34.7734 381.672 30.4534 380.125 28C378.578 25.4934 376.392 24.24 373.565 24.24C372.552 24.24 371.458 24.4 370.285 24.72C369.112 25.04 367.858 25.5734 366.525 26.32V56.56C368.658 57.4667 370.925 57.92 373.325 57.92Z" fill="url(#paint5_radial_25_61)" fill-opacity="0.8"/>
<path d="M351.805 78.48V76.96L352.845 76.64C353.912 76.3734 354.658 75.92 355.085 75.28C355.512 74.6934 355.725 73.84 355.725 72.72C355.725 70.5334 355.725 68.4534 355.725 66.48C355.778 64.56 355.805 62.6934 355.805 60.88V38.88C355.805 37.2267 355.805 35.8134 355.805 34.64C355.805 33.4134 355.778 32.0534 355.725 30.56C355.725 29.44 355.538 28.5867 355.165 28C354.792 27.36 354.072 26.9334 353.005 26.72L351.805 26.48V25.04L364.685 20.4L365.645 21.2L366.365 24.16C370.045 21.6534 374.205 20.4 378.845 20.4C383.378 20.4 387.005 22.1067 389.725 25.52C392.498 28.9334 393.885 33.9734 393.885 40.64C393.885 47.0934 392.365 52.1334 389.325 55.76C386.338 59.3334 382.258 61.12 377.085 61.12C375.005 61.12 373.032 60.9334 371.165 60.56C369.352 60.1867 367.725 59.6267 366.285 58.88V61.28C366.285 62.88 366.285 64.6134 366.285 66.48C366.338 68.3467 366.365 70.3734 366.365 72.56C366.365 74.6934 367.298 76.0267 369.165 76.56L370.685 76.96V78.48H351.805ZM373.325 57.92C376.152 57.92 378.365 56.6667 379.965 54.16C381.618 51.6 382.445 47.2 382.445 40.96C382.445 34.7734 381.672 30.4534 380.125 28C378.578 25.4934 376.392 24.24 373.565 24.24C372.552 24.24 371.458 24.4 370.285 24.72C369.112 25.04 367.858 25.5734 366.525 26.32V56.56C368.658 57.4667 370.925 57.92 373.325 57.92Z" fill="url(#paint6_radial_25_61)" fill-opacity="0.2"/>
<path d="M302.805 78.48V76.96L303.845 76.64C304.912 76.3734 305.658 75.92 306.085 75.28C306.512 74.6934 306.725 73.84 306.725 72.72C306.725 70.5334 306.725 68.4534 306.725 66.48C306.778 64.56 306.805 62.6934 306.805 60.88V38.88C306.805 37.2267 306.805 35.8134 306.805 34.64C306.805 33.4134 306.778 32.0534 306.725 30.56C306.725 29.44 306.538 28.5867 306.165 28C305.792 27.36 305.072 26.9334 304.005 26.72L302.805 26.48V25.04L315.685 20.4L316.645 21.2L317.365 24.16C321.045 21.6534 325.205 20.4 329.845 20.4C334.378 20.4 338.005 22.1067 340.725 25.52C343.498 28.9334 344.885 33.9734 344.885 40.64C344.885 47.0934 343.365 52.1334 340.325 55.76C337.338 59.3334 333.258 61.12 328.085 61.12C326.005 61.12 324.032 60.9334 322.165 60.56C320.352 60.1867 318.725 59.6267 317.285 58.88V61.28C317.285 62.88 317.285 64.6134 317.285 66.48C317.338 68.3467 317.365 70.3734 317.365 72.56C317.365 74.6934 318.298 76.0267 320.165 76.56L321.685 76.96V78.48H302.805ZM324.325 57.92C327.152 57.92 329.365 56.6667 330.965 54.16C332.618 51.6 333.445 47.2 333.445 40.96C333.445 34.7734 332.672 30.4534 331.125 28C329.578 25.4934 327.392 24.24 324.565 24.24C323.552 24.24 322.458 24.4 321.285 24.72C320.112 25.04 318.858 25.5734 317.525 26.32V56.56C319.658 57.4667 321.925 57.92 324.325 57.92Z" fill="#5433EB"/>
<path d="M302.805 78.48V76.96L303.845 76.64C304.912 76.3734 305.658 75.92 306.085 75.28C306.512 74.6934 306.725 73.84 306.725 72.72C306.725 70.5334 306.725 68.4534 306.725 66.48C306.778 64.56 306.805 62.6934 306.805 60.88V38.88C306.805 37.2267 306.805 35.8134 306.805 34.64C306.805 33.4134 306.778 32.0534 306.725 30.56C306.725 29.44 306.538 28.5867 306.165 28C305.792 27.36 305.072 26.9334 304.005 26.72L302.805 26.48V25.04L315.685 20.4L316.645 21.2L317.365 24.16C321.045 21.6534 325.205 20.4 329.845 20.4C334.378 20.4 338.005 22.1067 340.725 25.52C343.498 28.9334 344.885 33.9734 344.885 40.64C344.885 47.0934 343.365 52.1334 340.325 55.76C337.338 59.3334 333.258 61.12 328.085 61.12C326.005 61.12 324.032 60.9334 322.165 60.56C320.352 60.1867 318.725 59.6267 317.285 58.88V61.28C317.285 62.88 317.285 64.6134 317.285 66.48C317.338 68.3467 317.365 70.3734 317.365 72.56C317.365 74.6934 318.298 76.0267 320.165 76.56L321.685 76.96V78.48H302.805ZM324.325 57.92C327.152 57.92 329.365 56.6667 330.965 54.16C332.618 51.6 333.445 47.2 333.445 40.96C333.445 34.7734 332.672 30.4534 331.125 28C329.578 25.4934 327.392 24.24 324.565 24.24C323.552 24.24 322.458 24.4 321.285 24.72C320.112 25.04 318.858 25.5734 317.525 26.32V56.56C319.658 57.4667 321.925 57.92 324.325 57.92Z" fill="url(#paint7_radial_25_61)" fill-opacity="0.8"/>
<path d="M302.805 78.48V76.96L303.845 76.64C304.912 76.3734 305.658 75.92 306.085 75.28C306.512 74.6934 306.725 73.84 306.725 72.72C306.725 70.5334 306.725 68.4534 306.725 66.48C306.778 64.56 306.805 62.6934 306.805 60.88V38.88C306.805 37.2267 306.805 35.8134 306.805 34.64C306.805 33.4134 306.778 32.0534 306.725 30.56C306.725 29.44 306.538 28.5867 306.165 28C305.792 27.36 305.072 26.9334 304.005 26.72L302.805 26.48V25.04L315.685 20.4L316.645 21.2L317.365 24.16C321.045 21.6534 325.205 20.4 329.845 20.4C334.378 20.4 338.005 22.1067 340.725 25.52C343.498 28.9334 344.885 33.9734 344.885 40.64C344.885 47.0934 343.365 52.1334 340.325 55.76C337.338 59.3334 333.258 61.12 328.085 61.12C326.005 61.12 324.032 60.9334 322.165 60.56C320.352 60.1867 318.725 59.6267 317.285 58.88V61.28C317.285 62.88 317.285 64.6134 317.285 66.48C317.338 68.3467 317.365 70.3734 317.365 72.56C317.365 74.6934 318.298 76.0267 320.165 76.56L321.685 76.96V78.48H302.805ZM324.325 57.92C327.152 57.92 329.365 56.6667 330.965 54.16C332.618 51.6 333.445 47.2 333.445 40.96C333.445 34.7734 332.672 30.4534 331.125 28C329.578 25.4934 327.392 24.24 324.565 24.24C323.552 24.24 322.458 24.4 321.285 24.72C320.112 25.04 318.858 25.5734 317.525 26.32V56.56C319.658 57.4667 321.925 57.92 324.325 57.92Z" fill="url(#paint8_radial_25_61)" fill-opacity="0.2"/>
<path d="M276.227 61.12C272.28 61.12 268.814 60.2934 265.827 58.64C262.894 56.9867 260.6 54.64 258.947 51.6C257.347 48.56 256.547 44.9334 256.547 40.72C256.547 36.5067 257.4 32.88 259.107 29.84C260.867 26.8 263.214 24.48 266.147 22.88C269.134 21.2267 272.494 20.4 276.227 20.4C279.96 20.4 283.294 21.2267 286.227 22.88C289.214 24.48 291.56 26.8 293.267 29.84C295.027 32.8267 295.907 36.4534 295.907 40.72C295.907 44.9334 295.08 48.5867 293.427 51.68C291.827 54.72 289.56 57.0667 286.627 58.72C283.694 60.32 280.227 61.12 276.227 61.12ZM276.227 58.88C278.147 58.88 279.694 58.3734 280.867 57.36C282.094 56.2934 282.974 54.4534 283.507 51.84C284.04 49.2267 284.307 45.5734 284.307 40.88C284.307 36.1334 284.04 32.4534 283.507 29.84C282.974 27.1734 282.094 25.3334 280.867 24.32C279.694 23.2534 278.147 22.72 276.227 22.72C274.307 22.72 272.76 23.2534 271.587 24.32C270.414 25.3334 269.534 27.1734 268.947 29.84C268.414 32.4534 268.147 36.1334 268.147 40.88C268.147 45.5734 268.414 49.2267 268.947 51.84C269.534 54.4534 270.414 56.2934 271.587 57.36C272.76 58.3734 274.307 58.88 276.227 58.88Z" fill="#5433EB"/>
<path d="M276.227 61.12C272.28 61.12 268.814 60.2934 265.827 58.64C262.894 56.9867 260.6 54.64 258.947 51.6C257.347 48.56 256.547 44.9334 256.547 40.72C256.547 36.5067 257.4 32.88 259.107 29.84C260.867 26.8 263.214 24.48 266.147 22.88C269.134 21.2267 272.494 20.4 276.227 20.4C279.96 20.4 283.294 21.2267 286.227 22.88C289.214 24.48 291.56 26.8 293.267 29.84C295.027 32.8267 295.907 36.4534 295.907 40.72C295.907 44.9334 295.08 48.5867 293.427 51.68C291.827 54.72 289.56 57.0667 286.627 58.72C283.694 60.32 280.227 61.12 276.227 61.12ZM276.227 58.88C278.147 58.88 279.694 58.3734 280.867 57.36C282.094 56.2934 282.974 54.4534 283.507 51.84C284.04 49.2267 284.307 45.5734 284.307 40.88C284.307 36.1334 284.04 32.4534 283.507 29.84C282.974 27.1734 282.094 25.3334 280.867 24.32C279.694 23.2534 278.147 22.72 276.227 22.72C274.307 22.72 272.76 23.2534 271.587 24.32C270.414 25.3334 269.534 27.1734 268.947 29.84C268.414 32.4534 268.147 36.1334 268.147 40.88C268.147 45.5734 268.414 49.2267 268.947 51.84C269.534 54.4534 270.414 56.2934 271.587 57.36C272.76 58.3734 274.307 58.88 276.227 58.88Z" fill="url(#paint9_radial_25_61)" fill-opacity="0.8"/>
<path d="M276.227 61.12C272.28 61.12 268.814 60.2934 265.827 58.64C262.894 56.9867 260.6 54.64 258.947 51.6C257.347 48.56 256.547 44.9334 256.547 40.72C256.547 36.5067 257.4 32.88 259.107 29.84C260.867 26.8 263.214 24.48 266.147 22.88C269.134 21.2267 272.494 20.4 276.227 20.4C279.96 20.4 283.294 21.2267 286.227 22.88C289.214 24.48 291.56 26.8 293.267 29.84C295.027 32.8267 295.907 36.4534 295.907 40.72C295.907 44.9334 295.08 48.5867 293.427 51.68C291.827 54.72 289.56 57.0667 286.627 58.72C283.694 60.32 280.227 61.12 276.227 61.12ZM276.227 58.88C278.147 58.88 279.694 58.3734 280.867 57.36C282.094 56.2934 282.974 54.4534 283.507 51.84C284.04 49.2267 284.307 45.5734 284.307 40.88C284.307 36.1334 284.04 32.4534 283.507 29.84C282.974 27.1734 282.094 25.3334 280.867 24.32C279.694 23.2534 278.147 22.72 276.227 22.72C274.307 22.72 272.76 23.2534 271.587 24.32C270.414 25.3334 269.534 27.1734 268.947 29.84C268.414 32.4534 268.147 36.1334 268.147 40.88C268.147 45.5734 268.414 49.2267 268.947 51.84C269.534 54.4534 270.414 56.2934 271.587 57.36C272.76 58.3734 274.307 58.88 276.227 58.88Z" fill="url(#paint10_radial_25_61)" fill-opacity="0.2"/>
<path d="M206.371 60V58.4L207.411 58.08C209.331 57.4933 210.291 56.16 210.291 54.08V12.88C210.291 11.76 210.105 10.9333 209.731 10.4C209.358 9.8133 208.638 9.38663 207.571 9.11996L206.371 8.79996V7.27996L219.891 3.83997L221.171 4.55997L220.851 15.84V26.08C222.718 24.5333 224.745 23.2 226.931 22.08C229.171 20.96 231.571 20.4 234.131 20.4C237.651 20.4 240.398 21.3866 242.371 23.36C244.398 25.3333 245.411 28.3733 245.411 32.48V54.16C245.411 55.2266 245.625 56.08 246.051 56.72C246.478 57.36 247.225 57.84 248.291 58.16L249.011 58.4V60H230.771V58.4L231.731 58.08C233.651 57.5466 234.611 56.2133 234.611 54.08V30.96C234.611 28.7733 234.238 27.2533 233.491 26.4C232.745 25.5466 231.438 25.12 229.571 25.12C228.291 25.12 226.931 25.36 225.491 25.84C224.105 26.32 222.638 27.12 221.091 28.24V54.24C221.091 55.3066 221.305 56.16 221.731 56.8C222.158 57.44 222.878 57.8933 223.891 58.16L224.611 58.4V60H206.371Z" fill="#5433EB"/>
<path d="M206.371 60V58.4L207.411 58.08C209.331 57.4933 210.291 56.16 210.291 54.08V12.88C210.291 11.76 210.105 10.9333 209.731 10.4C209.358 9.8133 208.638 9.38663 207.571 9.11996L206.371 8.79996V7.27996L219.891 3.83997L221.171 4.55997L220.851 15.84V26.08C222.718 24.5333 224.745 23.2 226.931 22.08C229.171 20.96 231.571 20.4 234.131 20.4C237.651 20.4 240.398 21.3866 242.371 23.36C244.398 25.3333 245.411 28.3733 245.411 32.48V54.16C245.411 55.2266 245.625 56.08 246.051 56.72C246.478 57.36 247.225 57.84 248.291 58.16L249.011 58.4V60H230.771V58.4L231.731 58.08C233.651 57.5466 234.611 56.2133 234.611 54.08V30.96C234.611 28.7733 234.238 27.2533 233.491 26.4C232.745 25.5466 231.438 25.12 229.571 25.12C228.291 25.12 226.931 25.36 225.491 25.84C224.105 26.32 222.638 27.12 221.091 28.24V54.24C221.091 55.3066 221.305 56.16 221.731 56.8C222.158 57.44 222.878 57.8933 223.891 58.16L224.611 58.4V60H206.371Z" fill="url(#paint11_radial_25_61)" fill-opacity="0.8"/>
<path d="M206.371 60V58.4L207.411 58.08C209.331 57.4933 210.291 56.16 210.291 54.08V12.88C210.291 11.76 210.105 10.9333 209.731 10.4C209.358 9.8133 208.638 9.38663 207.571 9.11996L206.371 8.79996V7.27996L219.891 3.83997L221.171 4.55997L220.851 15.84V26.08C222.718 24.5333 224.745 23.2 226.931 22.08C229.171 20.96 231.571 20.4 234.131 20.4C237.651 20.4 240.398 21.3866 242.371 23.36C244.398 25.3333 245.411 28.3733 245.411 32.48V54.16C245.411 55.2266 245.625 56.08 246.051 56.72C246.478 57.36 247.225 57.84 248.291 58.16L249.011 58.4V60H230.771V58.4L231.731 58.08C233.651 57.5466 234.611 56.2133 234.611 54.08V30.96C234.611 28.7733 234.238 27.2533 233.491 26.4C232.745 25.5466 231.438 25.12 229.571 25.12C228.291 25.12 226.931 25.36 225.491 25.84C224.105 26.32 222.638 27.12 221.091 28.24V54.24C221.091 55.3066 221.305 56.16 221.731 56.8C222.158 57.44 222.878 57.8933 223.891 58.16L224.611 58.4V60H206.371Z" fill="url(#paint12_radial_25_61)" fill-opacity="0.2"/>
<path d="M182.458 61.12C179.898 61.12 177.577 60.8267 175.497 60.24C173.471 59.7067 171.524 58.9334 169.658 57.92V48.48H171.818L174.217 53.04C175.231 55.0134 176.378 56.48 177.658 57.44C178.991 58.4 180.671 58.88 182.697 58.88C185.204 58.88 187.204 58.3467 188.697 57.28C190.191 56.16 190.938 54.6667 190.938 52.8C190.938 51.0934 190.378 49.7067 189.258 48.64C188.138 47.5734 186.138 46.5867 183.258 45.68L179.738 44.56C176.591 43.6 174.084 42.16 172.217 40.24C170.404 38.2667 169.497 35.8134 169.497 32.88C169.497 30.5867 170.111 28.5067 171.337 26.64C172.564 24.72 174.351 23.2 176.697 22.08C179.044 20.96 181.898 20.4 185.258 20.4C187.444 20.4 189.444 20.6667 191.258 21.2C193.124 21.68 194.937 22.3734 196.697 23.28L196.217 31.84H194.137L191.658 27.28C190.804 25.5734 189.924 24.4 189.018 23.76C188.164 23.0667 186.831 22.72 185.018 22.72C183.098 22.72 181.391 23.2267 179.898 24.24C178.458 25.2 177.738 26.56 177.738 28.32C177.738 29.9734 178.351 31.3334 179.577 32.4C180.804 33.4134 182.777 34.3734 185.497 35.28L188.938 36.32C192.831 37.5467 195.604 39.1734 197.258 41.2C198.911 43.2267 199.738 45.6534 199.738 48.48C199.738 52.2667 198.218 55.3334 195.178 57.68C192.191 59.9734 187.951 61.12 182.458 61.12Z" fill="#5433EB"/>
<path d="M182.458 61.12C179.898 61.12 177.577 60.8267 175.497 60.24C173.471 59.7067 171.524 58.9334 169.658 57.92V48.48H171.818L174.217 53.04C175.231 55.0134 176.378 56.48 177.658 57.44C178.991 58.4 180.671 58.88 182.697 58.88C185.204 58.88 187.204 58.3467 188.697 57.28C190.191 56.16 190.938 54.6667 190.938 52.8C190.938 51.0934 190.378 49.7067 189.258 48.64C188.138 47.5734 186.138 46.5867 183.258 45.68L179.738 44.56C176.591 43.6 174.084 42.16 172.217 40.24C170.404 38.2667 169.497 35.8134 169.497 32.88C169.497 30.5867 170.111 28.5067 171.337 26.64C172.564 24.72 174.351 23.2 176.697 22.08C179.044 20.96 181.898 20.4 185.258 20.4C187.444 20.4 189.444 20.6667 191.258 21.2C193.124 21.68 194.937 22.3734 196.697 23.28L196.217 31.84H194.137L191.658 27.28C190.804 25.5734 189.924 24.4 189.018 23.76C188.164 23.0667 186.831 22.72 185.018 22.72C183.098 22.72 181.391 23.2267 179.898 24.24C178.458 25.2 177.738 26.56 177.738 28.32C177.738 29.9734 178.351 31.3334 179.577 32.4C180.804 33.4134 182.777 34.3734 185.497 35.28L188.938 36.32C192.831 37.5467 195.604 39.1734 197.258 41.2C198.911 43.2267 199.738 45.6534 199.738 48.48C199.738 52.2667 198.218 55.3334 195.178 57.68C192.191 59.9734 187.951 61.12 182.458 61.12Z" fill="url(#paint13_radial_25_61)" fill-opacity="0.8"/>
<path d="M182.458 61.12C179.898 61.12 177.577 60.8267 175.497 60.24C173.471 59.7067 171.524 58.9334 169.658 57.92V48.48H171.818L174.217 53.04C175.231 55.0134 176.378 56.48 177.658 57.44C178.991 58.4 180.671 58.88 182.697 58.88C185.204 58.88 187.204 58.3467 188.697 57.28C190.191 56.16 190.938 54.6667 190.938 52.8C190.938 51.0934 190.378 49.7067 189.258 48.64C188.138 47.5734 186.138 46.5867 183.258 45.68L179.738 44.56C176.591 43.6 174.084 42.16 172.217 40.24C170.404 38.2667 169.497 35.8134 169.497 32.88C169.497 30.5867 170.111 28.5067 171.337 26.64C172.564 24.72 174.351 23.2 176.697 22.08C179.044 20.96 181.898 20.4 185.258 20.4C187.444 20.4 189.444 20.6667 191.258 21.2C193.124 21.68 194.937 22.3734 196.697 23.28L196.217 31.84H194.137L191.658 27.28C190.804 25.5734 189.924 24.4 189.018 23.76C188.164 23.0667 186.831 22.72 185.018 22.72C183.098 22.72 181.391 23.2267 179.898 24.24C178.458 25.2 177.738 26.56 177.738 28.32C177.738 29.9734 178.351 31.3334 179.577 32.4C180.804 33.4134 182.777 34.3734 185.497 35.28L188.938 36.32C192.831 37.5467 195.604 39.1734 197.258 41.2C198.911 43.2267 199.738 45.6534 199.738 48.48C199.738 52.2667 198.218 55.3334 195.178 57.68C192.191 59.9734 187.951 61.12 182.458 61.12Z" fill="url(#paint14_radial_25_61)" fill-opacity="0.2"/>
<path d="M144.383 20.4C147.743 20.4 150.623 21.0934 153.023 22.48C155.423 23.8667 157.263 25.7867 158.543 28.24C159.876 30.64 160.543 33.4134 160.543 36.56C160.543 37.2534 160.516 37.92 160.463 38.56C160.41 39.1467 160.303 39.7067 160.143 40.24H136.063C136.116 45.7334 137.13 49.68 139.103 52.08C141.13 54.48 144.063 55.68 147.903 55.68C150.57 55.68 152.73 55.2534 154.383 54.4C156.036 53.4934 157.556 52.24 158.943 50.64L160.223 51.84C158.623 54.7734 156.436 57.0667 153.663 58.72C150.943 60.32 147.69 61.12 143.903 61.12C140.116 61.12 136.783 60.32 133.903 58.72C131.023 57.12 128.756 54.8267 127.103 51.84C125.503 48.8 124.703 45.1734 124.703 40.96C124.703 36.5867 125.636 32.88 127.503 29.84C129.423 26.8 131.876 24.48 134.863 22.88C137.903 21.2267 141.076 20.4 144.383 20.4ZM143.983 22.72C142.436 22.72 141.076 23.1734 139.903 24.08C138.783 24.9334 137.876 26.48 137.183 28.72C136.543 30.9067 136.17 34 136.063 38H150.383C150.97 32.6134 150.756 28.72 149.743 26.32C148.73 23.92 146.81 22.72 143.983 22.72Z" fill="#5433EB"/>
<path d="M144.383 20.4C147.743 20.4 150.623 21.0934 153.023 22.48C155.423 23.8667 157.263 25.7867 158.543 28.24C159.876 30.64 160.543 33.4134 160.543 36.56C160.543 37.2534 160.516 37.92 160.463 38.56C160.41 39.1467 160.303 39.7067 160.143 40.24H136.063C136.116 45.7334 137.13 49.68 139.103 52.08C141.13 54.48 144.063 55.68 147.903 55.68C150.57 55.68 152.73 55.2534 154.383 54.4C156.036 53.4934 157.556 52.24 158.943 50.64L160.223 51.84C158.623 54.7734 156.436 57.0667 153.663 58.72C150.943 60.32 147.69 61.12 143.903 61.12C140.116 61.12 136.783 60.32 133.903 58.72C131.023 57.12 128.756 54.8267 127.103 51.84C125.503 48.8 124.703 45.1734 124.703 40.96C124.703 36.5867 125.636 32.88 127.503 29.84C129.423 26.8 131.876 24.48 134.863 22.88C137.903 21.2267 141.076 20.4 144.383 20.4ZM143.983 22.72C142.436 22.72 141.076 23.1734 139.903 24.08C138.783 24.9334 137.876 26.48 137.183 28.72C136.543 30.9067 136.17 34 136.063 38H150.383C150.97 32.6134 150.756 28.72 149.743 26.32C148.73 23.92 146.81 22.72 143.983 22.72Z" fill="url(#paint15_radial_25_61)" fill-opacity="0.8"/>
<path d="M144.383 20.4C147.743 20.4 150.623 21.0934 153.023 22.48C155.423 23.8667 157.263 25.7867 158.543 28.24C159.876 30.64 160.543 33.4134 160.543 36.56C160.543 37.2534 160.516 37.92 160.463 38.56C160.41 39.1467 160.303 39.7067 160.143 40.24H136.063C136.116 45.7334 137.13 49.68 139.103 52.08C141.13 54.48 144.063 55.68 147.903 55.68C150.57 55.68 152.73 55.2534 154.383 54.4C156.036 53.4934 157.556 52.24 158.943 50.64L160.223 51.84C158.623 54.7734 156.436 57.0667 153.663 58.72C150.943 60.32 147.69 61.12 143.903 61.12C140.116 61.12 136.783 60.32 133.903 58.72C131.023 57.12 128.756 54.8267 127.103 51.84C125.503 48.8 124.703 45.1734 124.703 40.96C124.703 36.5867 125.636 32.88 127.503 29.84C129.423 26.8 131.876 24.48 134.863 22.88C137.903 21.2267 141.076 20.4 144.383 20.4ZM143.983 22.72C142.436 22.72 141.076 23.1734 139.903 24.08C138.783 24.9334 137.876 26.48 137.183 28.72C136.543 30.9067 136.17 34 136.063 38H150.383C150.97 32.6134 150.756 28.72 149.743 26.32C148.73 23.92 146.81 22.72 143.983 22.72Z" fill="url(#paint16_radial_25_61)" fill-opacity="0.2"/>
<path d="M87.1787 61.04L74.0587 60V58.48L74.8587 58.32C76.9387 57.84 77.9788 56.5066 77.9788 54.32V12.72C77.9788 11.6533 77.7654 10.8266 77.3388 10.24C76.9654 9.6533 76.2454 9.22663 75.1787 8.95997L74.1387 8.71996V7.27996L87.8187 3.83997L88.8587 4.55997L88.5387 15.84V24.24C92.3254 21.68 96.4054 20.4 100.779 20.4C105.259 20.4 108.965 22.0533 111.899 25.36C114.832 28.6133 116.299 33.6533 116.299 40.48C116.299 45.0133 115.552 48.8266 114.059 51.92C112.565 54.96 110.565 57.2533 108.059 58.8C105.552 60.3466 102.779 61.12 99.7388 61.12C97.7121 61.12 95.6854 60.8533 93.6588 60.32C91.6854 59.7866 89.9254 58.96 88.3788 57.84L87.1787 61.04ZM95.9788 57.6C97.7388 57.6 99.2854 57.0933 100.619 56.08C101.952 55.0666 102.992 53.3333 103.739 50.88C104.485 48.4266 104.859 45.0666 104.859 40.8C104.859 36.5333 104.512 33.2 103.819 30.8C103.125 28.4 102.112 26.72 100.779 25.76C99.4988 24.8 97.9521 24.32 96.1387 24.32C93.7387 24.32 91.2854 25.0133 88.7787 26.4V55.6C90.9654 56.9333 93.3654 57.6 95.9788 57.6Z" fill="#5433EB"/>
<path d="M87.1787 61.04L74.0587 60V58.48L74.8587 58.32C76.9387 57.84 77.9788 56.5066 77.9788 54.32V12.72C77.9788 11.6533 77.7654 10.8266 77.3388 10.24C76.9654 9.6533 76.2454 9.22663 75.1787 8.95997L74.1387 8.71996V7.27996L87.8187 3.83997L88.8587 4.55997L88.5387 15.84V24.24C92.3254 21.68 96.4054 20.4 100.779 20.4C105.259 20.4 108.965 22.0533 111.899 25.36C114.832 28.6133 116.299 33.6533 116.299 40.48C116.299 45.0133 115.552 48.8266 114.059 51.92C112.565 54.96 110.565 57.2533 108.059 58.8C105.552 60.3466 102.779 61.12 99.7388 61.12C97.7121 61.12 95.6854 60.8533 93.6588 60.32C91.6854 59.7866 89.9254 58.96 88.3788 57.84L87.1787 61.04ZM95.9788 57.6C97.7388 57.6 99.2854 57.0933 100.619 56.08C101.952 55.0666 102.992 53.3333 103.739 50.88C104.485 48.4266 104.859 45.0666 104.859 40.8C104.859 36.5333 104.512 33.2 103.819 30.8C103.125 28.4 102.112 26.72 100.779 25.76C99.4988 24.8 97.9521 24.32 96.1387 24.32C93.7387 24.32 91.2854 25.0133 88.7787 26.4V55.6C90.9654 56.9333 93.3654 57.6 95.9788 57.6Z" fill="url(#paint17_radial_25_61)" fill-opacity="0.8"/>
<path d="M87.1787 61.04L74.0587 60V58.48L74.8587 58.32C76.9387 57.84 77.9788 56.5066 77.9788 54.32V12.72C77.9788 11.6533 77.7654 10.8266 77.3388 10.24C76.9654 9.6533 76.2454 9.22663 75.1787 8.95997L74.1387 8.71996V7.27996L87.8187 3.83997L88.8587 4.55997L88.5387 15.84V24.24C92.3254 21.68 96.4054 20.4 100.779 20.4C105.259 20.4 108.965 22.0533 111.899 25.36C114.832 28.6133 116.299 33.6533 116.299 40.48C116.299 45.0133 115.552 48.8266 114.059 51.92C112.565 54.96 110.565 57.2533 108.059 58.8C105.552 60.3466 102.779 61.12 99.7388 61.12C97.7121 61.12 95.6854 60.8533 93.6588 60.32C91.6854 59.7866 89.9254 58.96 88.3788 57.84L87.1787 61.04ZM95.9788 57.6C97.7388 57.6 99.2854 57.0933 100.619 56.08C101.952 55.0666 102.992 53.3333 103.739 50.88C104.485 48.4266 104.859 45.0666 104.859 40.8C104.859 36.5333 104.512 33.2 103.819 30.8C103.125 28.4 102.112 26.72 100.779 25.76C99.4988 24.8 97.9521 24.32 96.1387 24.32C93.7387 24.32 91.2854 25.0133 88.7787 26.4V55.6C90.9654 56.9333 93.3654 57.6 95.9788 57.6Z" fill="url(#paint18_radial_25_61)" fill-opacity="0.2"/>
<path d="M48.0256 60.0001V58.4801L49.2256 58.1601C50.2923 57.8401 51.0123 57.3601 51.3856 56.7201C51.759 56.0801 51.9723 55.2267 52.0256 54.1601V39.4401C52.0256 37.7867 52.0256 36.2667 52.0256 34.8801C52.0256 33.4401 51.999 31.9734 51.9456 30.4801C51.9456 29.4134 51.7323 28.5867 51.3056 28.0001C50.9323 27.3601 50.2123 26.9334 49.1456 26.7201L48.0256 26.4801V25.0401L62.0256 20.4001L62.9856 21.2801L62.7456 32.6401V54.2401C62.7456 55.3067 62.9323 56.1601 63.3056 56.8001C63.7323 57.4401 64.4523 57.9201 65.4656 58.2401L66.3456 58.4801V60.0001H48.0256Z" fill="#5433EB"/>
<path d="M48.0256 60.0001V58.4801L49.2256 58.1601C50.2923 57.8401 51.0123 57.3601 51.3856 56.7201C51.759 56.0801 51.9723 55.2267 52.0256 54.1601V39.4401C52.0256 37.7867 52.0256 36.2667 52.0256 34.8801C52.0256 33.4401 51.999 31.9734 51.9456 30.4801C51.9456 29.4134 51.7323 28.5867 51.3056 28.0001C50.9323 27.3601 50.2123 26.9334 49.1456 26.7201L48.0256 26.4801V25.0401L62.0256 20.4001L62.9856 21.2801L62.7456 32.6401V54.2401C62.7456 55.3067 62.9323 56.1601 63.3056 56.8001C63.7323 57.4401 64.4523 57.9201 65.4656 58.2401L66.3456 58.4801V60.0001H48.0256Z" fill="url(#paint19_radial_25_61)" fill-opacity="0.8"/>
<path d="M48.0256 60.0001V58.4801L49.2256 58.1601C50.2923 57.8401 51.0123 57.3601 51.3856 56.7201C51.759 56.0801 51.9723 55.2267 52.0256 54.1601V39.4401C52.0256 37.7867 52.0256 36.2667 52.0256 34.8801C52.0256 33.4401 51.999 31.9734 51.9456 30.4801C51.9456 29.4134 51.7323 28.5867 51.3056 28.0001C50.9323 27.3601 50.2123 26.9334 49.1456 26.7201L48.0256 26.4801V25.0401L62.0256 20.4001L62.9856 21.2801L62.7456 32.6401V54.2401C62.7456 55.3067 62.9323 56.1601 63.3056 56.8001C63.7323 57.4401 64.4523 57.9201 65.4656 58.2401L66.3456 58.4801V60.0001H48.0256Z" fill="url(#paint20_radial_25_61)" fill-opacity="0.2"/>
<path d="M19.36 60.24L5.28 26.4C4.69333 24.9066 3.65333 23.9466 2.16 23.52L0.479996 23.12V21.6H20.72V23.12L18.64 23.6C16.9333 24.0266 16.4267 25.12 17.12 26.88L25.52 49.2L33.36 27.04C33.6267 26.1333 33.68 25.4133 33.52 24.88C33.4133 24.2933 32.9067 23.8933 32 23.68L29.68 23.12V21.6H41.84V23.12L39.2 23.76C37.6533 24.1333 36.6133 25.0933 36.08 26.64L24 60.24H19.36Z" fill="#5433EB"/>
<path d="M19.36 60.24L5.28 26.4C4.69333 24.9066 3.65333 23.9466 2.16 23.52L0.479996 23.12V21.6H20.72V23.12L18.64 23.6C16.9333 24.0266 16.4267 25.12 17.12 26.88L25.52 49.2L33.36 27.04C33.6267 26.1333 33.68 25.4133 33.52 24.88C33.4133 24.2933 32.9067 23.8933 32 23.68L29.68 23.12V21.6H41.84V23.12L39.2 23.76C37.6533 24.1333 36.6133 25.0933 36.08 26.64L24 60.24H19.36Z" fill="url(#paint21_radial_25_61)" fill-opacity="0.8"/>
<path d="M19.36 60.24L5.28 26.4C4.69333 24.9066 3.65333 23.9466 2.16 23.52L0.479996 23.12V21.6H20.72V23.12L18.64 23.6C16.9333 24.0266 16.4267 25.12 17.12 26.88L25.52 49.2L33.36 27.04C33.6267 26.1333 33.68 25.4133 33.52 24.88C33.4133 24.2933 32.9067 23.8933 32 23.68L29.68 23.12V21.6H41.84V23.12L39.2 23.76C37.6533 24.1333 36.6133 25.0933 36.08 26.64L24 60.24H19.36Z" fill="url(#paint22_radial_25_61)" fill-opacity="0.2"/>
<defs>
<radialGradient id="paint0_radial_25_61" cx="0" cy="0" r="1" gradientUnits="userSpaceOnUse" gradientTransform="translate(55.9105 7.90976) rotate(90) scale(7.90976 7.91052)">
<stop offset="0.168269" stop-color="#AC6BD8"/>
<stop offset="0.6875" stop-color="#5433EB"/>
</radialGradient>
<radialGradient id="paint1_radial_25_61" cx="0" cy="0" r="1" gradientUnits="userSpaceOnUse" gradientTransform="translate(287 35) scale(179.5 118.583)">
<stop stop-color="#FF9FC5" stop-opacity="0.5"/>
<stop offset="1" stop-color="#5433EB" stop-opacity="0"/>
</radialGradient>
<radialGradient id="paint2_radial_25_61" cx="0" cy="0" r="1" gradientUnits="userSpaceOnUse" gradientTransform="translate(-21 60) rotate(-4.04843) scale(219.548 49.7413)">
<stop stop-color="#5433EB" stop-opacity="0.25"/>
<stop offset="1" stop-color="#FF9FC5" stop-opacity="0.5"/>
</radialGradient>
<radialGradient id="paint3_radial_25_61" cx="0" cy="0" r="1" gradientUnits="userSpaceOnUse" gradientTransform="translate(287 35) scale(179.5 118.583)">
<stop stop-color="#FF9FC5" stop-opacity="0.5"/>
<stop offset="1" stop-color="#5433EB" stop-opacity="0"/>
</radialGradient>
<radialGradient id="paint4_radial_25_61" cx="0" cy="0" r="1" gradientUnits="userSpaceOnUse" gradientTransform="translate(-21 60) rotate(-4.04843) scale(219.548 49.7413)">
<stop stop-color="#5433EB" stop-opacity="0.25"/>
<stop offset="1" stop-color="#FF9FC5" stop-opacity="0.5"/>
</radialGradient>
<radialGradient id="paint5_radial_25_61" cx="0" cy="0" r="1" gradientUnits="userSpaceOnUse" gradientTransform="translate(287 35) scale(179.5 118.583)">
<stop stop-color="#FF9FC5" stop-opacity="0.5"/>
<stop offset="1" stop-color="#5433EB" stop-opacity="0"/>
</radialGradient>
<radialGradient id="paint6_radial_25_61" cx="0" cy="0" r="1" gradientUnits="userSpaceOnUse" gradientTransform="translate(-21 60) rotate(-4.04843) scale(219.548 49.7413)">
<stop stop-color="#5433EB" stop-opacity="0.25"/>
<stop offset="1" stop-color="#FF9FC5" stop-opacity="0.5"/>
</radialGradient>
<radialGradient id="paint7_radial_25_61" cx="0" cy="0" r="1" gradientUnits="userSpaceOnUse" gradientTransform="translate(287 35) scale(179.5 118.583)">
<stop stop-color="#FF9FC5" stop-opacity="0.5"/>
<stop offset="1" stop-color="#5433EB" stop-opacity="0"/>
</radialGradient>
<radialGradient id="paint8_radial_25_61" cx="0" cy="0" r="1" gradientUnits="userSpaceOnUse" gradientTransform="translate(-21 60) rotate(-4.04843) scale(219.548 49.7413)">
<stop stop-color="#5433EB" stop-opacity="0.25"/>
<stop offset="1" stop-color="#FF9FC5" stop-opacity="0.5"/>
</radialGradient>
<radialGradient id="paint9_radial_25_61" cx="0" cy="0" r="1" gradientUnits="userSpaceOnUse" gradientTransform="translate(287 35) scale(179.5 118.583)">
<stop stop-color="#FF9FC5" stop-opacity="0.5"/>
<stop offset="1" stop-color="#5433EB" stop-opacity="0"/>
</radialGradient>
<radialGradient id="paint10_radial_25_61" cx="0" cy="0" r="1" gradientUnits="userSpaceOnUse" gradientTransform="translate(-21 60) rotate(-4.04843) scale(219.548 49.7413)">
<stop stop-color="#5433EB" stop-opacity="0.25"/>
<stop offset="1" stop-color="#FF9FC5" stop-opacity="0.5"/>
</radialGradient>
<radialGradient id="paint11_radial_25_61" cx="0" cy="0" r="1" gradientUnits="userSpaceOnUse" gradientTransform="translate(287 35) scale(179.5 118.583)">
<stop stop-color="#FF9FC5" stop-opacity="0.5"/>
<stop offset="1" stop-color="#5433EB" stop-opacity="0"/>
</radialGradient>
<radialGradient id="paint12_radial_25_61" cx="0" cy="0" r="1" gradientUnits="userSpaceOnUse" gradientTransform="translate(-21 60) rotate(-4.04843) scale(219.548 49.7413)">
<stop stop-color="#5433EB" stop-opacity="0.25"/>
<stop offset="1" stop-color="#FF9FC5" stop-opacity="0.5"/>
</radialGradient>
<radialGradient id="paint13_radial_25_61" cx="0" cy="0" r="1" gradientUnits="userSpaceOnUse" gradientTransform="translate(287 35) scale(179.5 118.583)">
<stop stop-color="#FF9FC5" stop-opacity="0.5"/>
<stop offset="1" stop-color="#5433EB" stop-opacity="0"/>
</radialGradient>
<radialGradient id="paint14_radial_25_61" cx="0" cy="0" r="1" gradientUnits="userSpaceOnUse" gradientTransform="translate(-21 60) rotate(-4.04843) scale(219.548 49.7413)">
<stop stop-color="#5433EB" stop-opacity="0.25"/>
<stop offset="1" stop-color="#FF9FC5" stop-opacity="0.5"/>
</radialGradient>
<radialGradient id="paint15_radial_25_61" cx="0" cy="0" r="1" gradientUnits="userSpaceOnUse" gradientTransform="translate(287 35) scale(179.5 118.583)">
<stop stop-color="#FF9FC5" stop-opacity="0.5"/>
<stop offset="1" stop-color="#5433EB" stop-opacity="0"/>
</radialGradient>
<radialGradient id="paint16_radial_25_61" cx="0" cy="0" r="1" gradientUnits="userSpaceOnUse" gradientTransform="translate(-21 60) rotate(-4.04843) scale(219.548 49.7413)">
<stop stop-color="#5433EB" stop-opacity="0.25"/>
<stop offset="1" stop-color="#FF9FC5" stop-opacity="0.5"/>
</radialGradient>
<radialGradient id="paint17_radial_25_61" cx="0" cy="0" r="1" gradientUnits="userSpaceOnUse" gradientTransform="translate(287 35) scale(179.5 118.583)">
<stop stop-color="#FF9FC5" stop-opacity="0.5"/>
<stop offset="1" stop-color="#5433EB" stop-opacity="0"/>
</radialGradient>
<radialGradient id="paint18_radial_25_61" cx="0" cy="0" r="1" gradientUnits="userSpaceOnUse" gradientTransform="translate(-21 60) rotate(-4.04843) scale(219.548 49.7413)">
<stop stop-color="#5433EB" stop-opacity="0.25"/>
<stop offset="1" stop-color="#FF9FC5" stop-opacity="0.5"/>
</radialGradient>
<radialGradient id="paint19_radial_25_61" cx="0" cy="0" r="1" gradientUnits="userSpaceOnUse" gradientTransform="translate(287 35) scale(179.5 118.583)">
<stop stop-color="#FF9FC5" stop-opacity="0.5"/>
<stop offset="1" stop-color="#5433EB" stop-opacity="0"/>
</radialGradient>
<radialGradient id="paint20_radial_25_61" cx="0" cy="0" r="1" gradientUnits="userSpaceOnUse" gradientTransform="translate(-21 60) rotate(-4.04843) scale(219.548 49.7413)">
<stop stop-color="#5433EB" stop-opacity="0.25"/>
<stop offset="1" stop-color="#FF9FC5" stop-opacity="0.5"/>
</radialGradient>
<radialGradient id="paint21_radial_25_61" cx="0" cy="0" r="1" gradientUnits="userSpaceOnUse" gradientTransform="translate(287 35) scale(179.5 118.583)">
<stop stop-color="#FF9FC5" stop-opacity="0.5"/>
<stop offset="1" stop-color="#5433EB" stop-opacity="0"/>
</radialGradient>
<radialGradient id="paint22_radial_25_61" cx="0" cy="0" r="1" gradientUnits="userSpaceOnUse" gradientTransform="translate(-21 60) rotate(-4.04843) scale(219.548 49.7413)">
<stop stop-color="#5433EB" stop-opacity="0.25"/>
<stop offset="1" stop-color="#FF9FC5" stop-opacity="0.5"/>
</radialGradient>
</defs>
</svg>
